<?xml version="1.0" standalone="no"?>
<!DOCTYPE svg PUBLIC "-//W3C//DTD SVG 20010904//EN"
 "http://www.w3.org/TR/2001/REC-SVG-20010904/DTD/svg10.dtd">
<svg version="1.0" xmlns="http://www.w3.org/2000/svg"
 width="428.000000pt" height="354.000000pt" viewBox="0 0 428.000000 354.000000"
 preserveAspectRatio="xMidYMid meet">

<g transform="translate(0.000000,354.000000) scale(0.100000,-0.100000)"
fill="#000000" stroke="none">
<path d="M3370 3370 l0 -150 30 0 30 0 0 150 0 150 -30 0 -30 0 0 -150z"/>
<path d="M3007 3427 c-16 -11 -13 -23 45 -143 60 -125 64 -131 86 -121 12 5
22 13 22 17 0 15 -121 260 -128 260 -5 0 -16 -6 -25 -13z"/>
<path d="M3695 3318 c-31 -68 -59 -128 -62 -134 -2 -6 7 -15 20 -21 24 -11 26
-8 89 120 64 130 65 132 44 144 -12 7 -24 12 -27 13 -3 0 -32 -55 -64 -122z"/>
<path d="M3950 3090 l0 -150 25 0 25 0 0 150 0 150 -25 0 -25 0 0 -150z"/>
<path d="M2670 3090 l0 -30 150 0 150 0 0 30 0 30 -150 0 -150 0 0 -30z"/>
<path d="M3320 3079 c-78 -13 -186 -69 -243 -126 -99 -98 -156 -274 -129 -399
25 -122 92 -225 187 -292 l54 -37 1 -73 0 -73 33 6 c17 3 106 19 197 35 91 17
168 30 173 30 4 0 7 17 7 38 1 34 6 40 56 72 178 113 244 363 149 568 -84 180
-284 284 -485 251z"/>
<path d="M1595 2951 c-99 -26 -190 -106 -224 -196 -26 -68 -28 -172 -5 -238
19 -56 90 -138 148 -172 125 -72 308 -41 402 68 59 70 78 122 78 217 1 73 -3
93 -27 141 -32 67 -100 133 -165 161 -50 23 -157 32 -207 19z"/>
<path d="M2534 2833 c-4 -13 -4 -26 -1 -29 5 -6 254 -64 273 -64 6 0 14 11 16
25 4 20 1 26 -16 31 -11 2 -76 17 -144 33 l-122 28 -6 -24z"/>
<path d="M4115 2825 c-140 -31 -157 -41 -136 -74 7 -11 33 -8 147 18 75 17
138 32 139 34 1 1 -1 14 -4 28 l-6 26 -140 -32z"/>
<path d="M855 2263 c-176 -14 -321 -26 -322 -27 -2 -1 0 -181 4 -399 l6 -397
81 0 c45 0 118 3 164 7 l82 6 0 228 0 229 95 0 c85 0 95 -2 95 -18 0 -10 -16
-117 -35 -236 -40 -250 -22 -215 -202 -403 l-98 -103 -270 99 c-148 55 -278
101 -288 103 -15 2 -30 -24 -82 -147 -35 -82 -61 -153 -57 -156 4 -4 177 -88
385 -187 l379 -179 281 174 281 174 199 -199 200 -200 36 -306 35 -306 158 0
158 0 0 388 0 387 -184 276 -184 275 37 230 36 230 135 -28 c130 -26 147 -27
443 -28 l307 0 0 143 0 143 -265 18 -265 17 -187 70 c-186 69 -191 70 -453
109 -146 22 -292 39 -325 39 -33 -1 -204 -13 -380 -26z"/>
<path d="M3380 2076 l-175 -32 -3 -28 c-3 -23 0 -27 15 -23 10 3 100 20 201
38 174 31 182 33 182 56 0 29 0 29 -220 -11z"/>
<path d="M3401 1991 c-107 -20 -196 -40 -198 -46 -1 -5 1 -16 6 -24 8 -12 38
-9 200 20 l191 34 0 27 c0 16 -1 27 -2 27 -2 -1 -90 -18 -197 -38z"/>
<path d="M3400 1902 c-80 -14 -147 -27 -149 -29 -2 -1 3 -11 12 -21 10 -10 17
-35 17 -55 l0 -37 120 0 120 0 0 43 c0 29 5 46 18 53 9 6 25 26 35 43 18 31
18 31 -5 30 -13 -1 -88 -13 -168 -27z"/>
<path d="M1110 656 c-101 -22 -182 -83 -228 -170 -23 -45 -27 -63 -27 -146 0
-110 19 -161 87 -230 63 -65 136 -95 233 -95 100 1 162 26 228 93 85 86 116
210 83 325 -46 157 -216 259 -376 223z"/>
</g>
</svg>
